<svg width="400" height="300" viewBox="0 0 400 300" fill="none" xmlns="http://www.w3.org/2000/svg">
  <rect width="400" height="300" rx="10" fill="#F2F6FC"/>
  
  <!-- Network diagram -->
  <circle cx="200" cy="100" r="25" fill="#409EFF" opacity="0.8"/>
  <circle cx="120" cy="150" r="20" fill="#67C23A" opacity="0.8"/>
  <circle cx="280" cy="150" r="20" fill="#67C23A" opacity="0.8"/>
  <circle cx="150" cy="220" r="15" fill="#E6A23C" opacity="0.8"/>
  <circle cx="250" cy="220" r="15" fill="#E6A23C" opacity="0.8"/>
  
  <!-- Connection lines -->
  <line x1="180" y1="110" x2="135" y2="140" stroke="#909399" stroke-width="2" stroke-dasharray="5 5"/>
  <line x1="220" y1="110" x2="265" y2="140" stroke="#909399" stroke-width="2" stroke-dasharray="5 5"/>
  <line x1="120" y1="170" x2="150" y2="205" stroke="#909399" stroke-width="2" stroke-dasharray="5 5"/>
  <line x1="280" y1="170" x2="250" y2="205" stroke="#909399" stroke-width="2" stroke-dasharray="5 5"/>
  
  <!-- Message bubbles -->
  <rect x="295" y="70" width="80" height="40" rx="10" fill="#ECF5FF"/>
  <rect x="25" y="110" width="80" height="40" rx="10" fill="#ECF5FF"/>
  <rect x="295" y="180" width="80" height="40" rx="10" fill="#ECF5FF"/>
  
  <!-- Icons -->
  <rect x="310" y="80" width="50" height="5" rx="2.5" fill="#409EFF"/>
  <rect x="310" y="90" width="40" height="5" rx="2.5" fill="#409EFF"/>
  
  <rect x="40" y="120" width="50" height="5" rx="2.5" fill="#409EFF"/>
  <rect x="40" y="130" width="40" height="5" rx="2.5" fill="#409EFF"/>
  
  <rect x="310" y="190" width="50" height="5" rx="2.5" fill="#409EFF"/>
  <rect x="310" y="200" width="40" height="5" rx="2.5" fill="#409EFF"/>
</svg> 