<svg width="600" height="400" viewBox="0 0 600 400" xmlns="http://www.w3.org/2000/svg">
  <!-- 背景 -->
  <rect width="600" height="400" fill="#F5F7FA" opacity="0.5" rx="20" ry="20"/>
  
  <!-- 中心知识图谱核心 -->
  <g transform="translate(300, 80)">
    <circle cx="0" cy="0" r="35" fill="#409EFF" stroke="#ffffff" stroke-width="3"/>
    <text x="0" y="-5" fill="white" text-anchor="middle" font-family="Arial" font-size="11" font-weight="bold">知识图谱</text>
    <text x="0" y="8" fill="white" text-anchor="middle" font-family="Arial" font-size="11">核心</text>
  </g>
  
  <!-- 学科基础节点 -->
  <g transform="translate(180, 160)">
    <circle cx="0" cy="0" r="28" fill="#67C23A" stroke="#ffffff" stroke-width="2"/>
    <text x="0" y="-3" fill="white" text-anchor="middle" font-family="Arial" font-size="10" font-weight="bold">数学</text>
    <text x="0" y="8" fill="white" text-anchor="middle" font-family="Arial" font-size="10">基础</text>
  </g>
  
  <g transform="translate(420, 160)">
    <circle cx="0" cy="0" r="28" fill="#67C23A" stroke="#ffffff" stroke-width="2"/>
    <text x="0" y="-3" fill="white" text-anchor="middle" font-family="Arial" font-size="10" font-weight="bold">编程</text>
    <text x="0" y="8" fill="white" text-anchor="middle" font-family="Arial" font-size="10">思维</text>
  </g>
  
  <!-- 学习方法节点 -->
  <g transform="translate(120, 240)">
    <rect x="-35" y="-18" width="70" height="36" rx="18" fill="#E6A23C" stroke="#ffffff" stroke-width="2"/>
    <text x="0" y="-3" fill="white" text-anchor="middle" font-family="Arial" font-size="9" font-weight="bold">学习策略</text>
    <text x="0" y="8" fill="white" text-anchor="middle" font-family="Arial" font-size="9">制定</text>
  </g>
  
  <g transform="translate(240, 240)">
    <rect x="-35" y="-18" width="70" height="36" rx="18" fill="#E6A23C" stroke="#ffffff" stroke-width="2"/>
    <text x="0" y="-3" fill="white" text-anchor="middle" font-family="Arial" font-size="9" font-weight="bold">认知诊断</text>
    <text x="0" y="8" fill="white" text-anchor="middle" font-family="Arial" font-size="9">分析</text>
  </g>
  
  <g transform="translate(360, 240)">
    <rect x="-35" y="-18" width="70" height="36" rx="18" fill="#E6A23C" stroke="#ffffff" stroke-width="2"/>
    <text x="0" y="-3" fill="white" text-anchor="middle" font-family="Arial" font-size="9" font-weight="bold">路径规划</text>
    <text x="0" y="8" fill="white" text-anchor="middle" font-family="Arial" font-size="9">优化</text>
  </g>
  
  <g transform="translate(480, 240)">
    <rect x="-35" y="-18" width="70" height="36" rx="18" fill="#E6A23C" stroke="#ffffff" stroke-width="2"/>
    <text x="0" y="-3" fill="white" text-anchor="middle" font-family="Arial" font-size="9" font-weight="bold">效果评估</text>
    <text x="0" y="8" fill="white" text-anchor="middle" font-family="Arial" font-size="9">反馈</text>
  </g>
  
  <!-- 学习者终端 -->
  <g transform="translate(100, 320)">
    <polygon points="-15,12 15,12 18,0 15,-12 -15,-12 -18,0" fill="#909399" stroke="#ffffff" stroke-width="1"/>
    <text x="0" y="3" fill="white" text-anchor="middle" font-family="Arial" font-size="8">学习者A</text>
  </g>
  
  <g transform="translate(150, 320)">
    <polygon points="-15,12 15,12 18,0 15,-12 -15,-12 -18,0" fill="#909399" stroke="#ffffff" stroke-width="1"/>
    <text x="0" y="3" fill="white" text-anchor="middle" font-family="Arial" font-size="8">学习者B</text>
  </g>
  
  <g transform="translate(220, 320)">
    <polygon points="-15,12 15,12 18,0 15,-12 -15,-12 -18,0" fill="#909399" stroke="#ffffff" stroke-width="1"/>
    <text x="0" y="3" fill="white" text-anchor="middle" font-family="Arial" font-size="8">学习者C</text>
  </g>
  
  <g transform="translate(270, 320)">
    <polygon points="-15,12 15,12 18,0 15,-12 -15,-12 -18,0" fill="#909399" stroke="#ffffff" stroke-width="1"/>
    <text x="0" y="3" fill="white" text-anchor="middle" font-family="Arial" font-size="8">学习者D</text>
  </g>
  
  <g transform="translate(340, 320)">
    <polygon points="-15,12 15,12 18,0 15,-12 -15,-12 -18,0" fill="#909399" stroke="#ffffff" stroke-width="1"/>
    <text x="0" y="3" fill="white" text-anchor="middle" font-family="Arial" font-size="8">学习者E</text>
  </g>
  
  <g transform="translate(390, 320)">
    <polygon points="-15,12 15,12 18,0 15,-12 -15,-12 -18,0" fill="#909399" stroke="#ffffff" stroke-width="1"/>
    <text x="0" y="3" fill="white" text-anchor="middle" font-family="Arial" font-size="8">学习者F</text>
  </g>
  
  <g transform="translate(460, 320)">
    <polygon points="-15,12 15,12 18,0 15,-12 -15,-12 -18,0" fill="#F56C6C" stroke="#ffffff" stroke-width="1"/>
    <text x="0" y="3" fill="white" text-anchor="middle" font-family="Arial" font-size="8">AI助手</text>
  </g>
  
  <g transform="translate(510, 320)">
    <polygon points="-15,12 15,12 18,0 15,-12 -15,-12 -18,0" fill="#409EFF" stroke="#ffffff" stroke-width="1"/>
    <text x="0" y="3" fill="white" text-anchor="middle" font-family="Arial" font-size="8">智能体</text>
  </g>
  
  <!-- 知识连接线 -->
  <!-- 核心到学科基础 -->
  <line x1="275" y1="95" x2="205" y2="145" stroke="#67C23A" stroke-width="3" opacity="0.8" />
  <line x1="325" y1="95" x2="395" y2="145" stroke="#67C23A" stroke-width="3" opacity="0.8" />
  
  <!-- 学科基础到学习方法 -->
  <line x1="165" y1="180" x2="135" y2="222" stroke="#E6A23C" stroke-width="2" opacity="0.7" />
  <line x1="195" y1="180" x2="225" y2="222" stroke="#E6A23C" stroke-width="2" opacity="0.7" />
  <line x1="405" y1="180" x2="375" y2="222" stroke="#E6A23C" stroke-width="2" opacity="0.7" />
  <line x1="435" y1="180" x2="465" y2="222" stroke="#E6A23C" stroke-width="2" opacity="0.7" />
  
  <!-- 学习方法到学习者 -->
  <line x1="120" y1="258" x2="110" y2="302" stroke="#606266" stroke-width="1" stroke-dasharray="3,3" />
  <line x1="130" y1="258" x2="140" y2="302" stroke="#606266" stroke-width="1" stroke-dasharray="3,3" />
  <line x1="240" y1="258" x2="230" y2="302" stroke="#606266" stroke-width="1" stroke-dasharray="3,3" />
  <line x1="250" y1="258" x2="260" y2="302" stroke="#606266" stroke-width="1" stroke-dasharray="3,3" />
  <line x1="360" y1="258" x2="350" y2="302" stroke="#606266" stroke-width="1" stroke-dasharray="3,3" />
  <line x1="370" y1="258" x2="380" y2="302" stroke="#606266" stroke-width="1" stroke-dasharray="3,3" />
  <line x1="480" y1="258" x2="470" y2="302" stroke="#606266" stroke-width="1" stroke-dasharray="3,3" />
  <line x1="490" y1="258" x2="500" y2="302" stroke="#606266" stroke-width="1" stroke-dasharray="3,3" />
  
  <!-- 智能推荐标记 -->
  <g transform="translate(260, 120)">
    <circle cx="0" cy="0" r="10" fill="#52C41A" />
    <text x="0" y="3" fill="white" text-anchor="middle" font-family="Arial" font-size="12" font-weight="bold">✓</text>
  </g>
  
  <g transform="translate(340, 190)">
    <circle cx="0" cy="0" r="10" fill="#52C41A" />
    <text x="0" y="3" fill="white" text-anchor="middle" font-family="Arial" font-size="12" font-weight="bold">✓</text>
  </g>
  
  <!-- 学习进度标签 -->
  <g transform="translate(320, 110)">
    <rect x="-25" y="-8" width="50" height="16" rx="8" fill="white" stroke="#52C41A" stroke-width="1"/>
    <text x="0" y="3" fill="#52C41A" text-anchor="middle" font-family="Arial" font-size="9" font-weight="bold">67%完成</text>
  </g>
  
  <g transform="translate(190, 190)">
    <rect x="-25" y="-8" width="50" height="16" rx="8" fill="white" stroke="#FA8C16" stroke-width="1"/>
    <text x="0" y="3" fill="#FA8C16" text-anchor="middle" font-family="Arial" font-size="9" font-weight="bold">43%完成</text>
  </g>
  
  <g transform="translate(410, 190)">
    <rect x="-25" y="-8" width="50" height="16" rx="8" fill="white" stroke="#1890FF" stroke-width="1"/>
    <text x="0" y="3" fill="#1890FF" text-anchor="middle" font-family="Arial" font-size="9" font-weight="bold">85%完成</text>
  </g>
  
  <!-- 图例 -->
  <g transform="translate(50, 50)">
    <circle cx="7" cy="7" r="7" fill="#409EFF" />
    <text x="20" y="12" fill="#303133" font-family="Arial" font-size="11">知识图谱核心</text>
    
    <circle cx="7" cy="27" r="7" fill="#67C23A" />
    <text x="20" y="32" fill="#303133" font-family="Arial" font-size="11">学科基础</text>
    
    <rect x="0" y="40" width="14" height="14" rx="7" fill="#E6A23C" />
    <text x="20" y="52" fill="#303133" font-family="Arial" font-size="11">学习方法</text>
    
    <polygon points="0,67 14,67 16,60 14,53 0,53 -2,60" fill="#909399" />
    <text x="20" y="62" fill="#303133" font-family="Arial" font-size="11">学习者</text>
    
    <circle cx="7" cy="82" r="5" fill="#52C41A" />
    <text x="20" y="87" fill="#303133" font-family="Arial" font-size="11">智能推荐</text>
  </g>
  
  <!-- 标题 -->
  <g transform="translate(500, 50)">
    <text x="0" y="0" fill="#303133" font-family="Arial" font-size="15" font-weight="bold" text-anchor="middle">学习路径知识图谱</text>
    <text x="0" y="20" fill="#606266" font-family="Arial" font-size="11" text-anchor="middle">个性化学习路径规划示例</text>
    <text x="0" y="35" fill="#606266" font-family="Arial" font-size="10" text-anchor="middle">基于深度推理大模型</text>
  </g>
</svg> 